STARTFONT 2.1
FONT -FontForge-VCR OSD Mono-Book-R-Normal--48-460-75-75-M-140-ISO10646-1
SIZE 46 75 75
FONTBOUNDINGBOX 14 40 0 0
COMMENT "Generated by fontforge, http://fontforge.sourceforge.net"
STARTPROPERTIES 38
FOUNDRY "FontForge"
FAMILY_NAME "VCR OSD Mono"
WEIGHT_NAME "Book"
SLANT "R"
SETWIDTH_NAME "Normal"
ADD_STYLE_NAME ""
PIXEL_SIZE 48
POINT_SIZE 460
RESOLUTION_X 75
RESOLUTION_Y 75
SPACING "M"
AVERAGE_WIDTH 140
CHARSET_REGISTRY "ISO10646"
CHARSET_ENCODING "1"
FONTNAME_REGISTRY ""
CHARSET_COLLECTIONS "ISO10646-1"
FONT_NAME "VCROSDMono"
FACE_NAME "VCR OSD Mono"
FONT_VERSION "1.001 March 31, 2015"
FONT_ASCENT 38
FONT_DESCENT 10
UNDERLINE_POSITION -7
UNDERLINE_THICKNESS 4
X_HEIGHT 27
CAP_HEIGHT 34
RAW_ASCENT 799
RAW_DESCENT 200
RELATIVE_WEIGHT 40
RELATIVE_SETWIDTH 50
SUPERSCRIPT_X 0
SUPERSCRIPT_Y 21
SUPERSCRIPT_SIZE 31
SUBSCRIPT_X 0
SUBSCRIPT_Y 7
SUBSCRIPT_SIZE 31
FIGURE_WIDTH 14
AVG_LOWERCASE_WIDTH 217
AVG_UPPERCASE_WIDTH 215
ENDPROPERTIES
CHARS 91
STARTCHAR exclam
ENCODING 33
SWIDTH 292 0
DWIDTH 14 0
BBX 2 33 6 2
BITMAP
C0
C0
C0
C0
C0
C0
C0
C0
C0
C0
C0
C0
C0
C0
C0
C0
C0
C0
C0
C0
C0
C0
C0
00
00
00
00
00
C0
C0
C0
C0
C0
ENDCHAR
STARTCHAR quotedbl
ENCODING 34
SWIDTH 292 0
DWIDTH 14 0
BBX 10 9 2 26
BITMAP
F3C0
F3C0
F3C0
F3C0
F3C0
F3C0
F3C0
6180
6180
ENDCHAR
STARTCHAR numbersign
ENCODING 35
SWIDTH 292 0
DWIDTH 14 0
BBX 12 30 1 5
BITMAP
0180
0180
1980
1980
1980
19F0
19F0
1FF0
1FF0
7FF0
FF80
FF80
F980
F980
1980
1980
19F0
19F0
1FF0
1FF0
1FF0
FF80
FF80
F980
F980
F980
1980
1980
1800
1800
ENDCHAR
STARTCHAR dollar
ENCODING 36
SWIDTH 292 0
DWIDTH 14 0
BBX 12 33 1 2
BITMAP
0600
0600
3FC0
3FC0
3FC0
7FE0
7FE0
F6F0
F6F0
C630
C630
C630
F600
F600
7FC0
7FC0
7FE0
3FE0
3FE0
06F0
06F0
C630
C630
F6F0
F6F0
7FE0
7FE0
7FE0
3FC0
3FC0
0600
0600
0600
ENDCHAR
STARTCHAR percent
ENCODING 37
SWIDTH 292 0
DWIDTH 14 0
BBX 11 33 1 2
BITMAP
7860
7860
7860
F860
F860
D860
D860
D9E0
D9E0
FBC0
FBC0
FBC0
7F80
7F80
0600
0600
1C00
1C00
3BC0
3BC0
3BC0
7FE0
7FE0
E660
E660
C660
C660
C660
C7E0
C7E0
C3C0
C3C0
C3C0
ENDCHAR
STARTCHAR ampersand
ENCODING 38
SWIDTH 292 0
DWIDTH 14 0
BBX 11 38 1 2
BITMAP
1E00
1E00
1F00
3F00
3F00
6180
6180
6180
6180
6180
6180
6180
6180
6180
3B00
3B00
3F00
3F00
3E00
7E00
7E00
FE00
FE00
C760
C760
C7E0
C3E0
C3E0
C1E0
C1E0
E1E0
E1E0
E1E0
7FE0
7FE0
7FE0
3F60
3F60
ENDCHAR
STARTCHAR quotesingle
ENCODING 39
SWIDTH 292 0
DWIDTH 14 0
BBX 4 9 5 26
BITMAP
F0
F0
F0
F0
F0
F0
F0
60
60
ENDCHAR
STARTCHAR parenleft
ENCODING 40
SWIDTH 292 0
DWIDTH 14 0
BBX 5 38 4 2
BITMAP
18
18
10
30
30
60
60
C0
C0
C0
C0
C0
C0
C0
C0
C0
C0
C0
C0
C0
C0
C0
C0
C0
C0
C0
C0
C0
C0
C0
C0
60
60
30
30
30
18
18
ENDCHAR
STARTCHAR parenright
ENCODING 41
SWIDTH 292 0
DWIDTH 14 0
BBX 5 38 4 2
BITMAP
C0
C0
E0
60
60
30
30
18
18
18
18
18
18
18
18
18
18
18
18
18
18
18
18
18
18
18
18
18
18
18
18
30
30
60
60
60
C0
C0
ENDCHAR
STARTCHAR asterisk
ENCODING 42
SWIDTH 292 0
DWIDTH 14 0
BBX 9 22 2 16
BITMAP
0C00
0C00
0C00
8C80
8C80
CD80
CD80
CD80
7F00
7F00
3E00
3E00
7F00
7F00
FF00
CD80
CD80
8C80
8C80
0C00
0C00
0C00
ENDCHAR
STARTCHAR plus
ENCODING 43
SWIDTH 292 0
DWIDTH 14 0
BBX 12 23 1 7
BITMAP
0600
0600
0600
0600
0600
0600
0600
0600
0600
FFF0
FFF0
FFF0
FFF0
FFF0
0600
0600
0600
0600
0600
0600
0600
0600
0600
ENDCHAR
STARTCHAR comma
ENCODING 44
SWIDTH 292 0
DWIDTH 14 0
BBX 4 10 5 2
BITMAP
30
30
30
30
30
60
60
40
C0
C0
ENDCHAR
STARTCHAR period
ENCODING 46
SWIDTH 292 0
DWIDTH 14 0
BBX 2 5 6 2
BITMAP
C0
C0
C0
C0
C0
ENDCHAR
STARTCHAR slash
ENCODING 47
SWIDTH 292 0
DWIDTH 14 0
BBX 11 33 1 2
BITMAP
0060
0060
0060
0060
0060
0060
0060
00E0
00E0
01C0
01C0
01C0
0780
0780
0F00
0F00
0E00
1E00
1E00
3C00
3C00
7000
7000
7000
E000
E000
C000
C000
C000
C000
C000
C000
C000
ENDCHAR
STARTCHAR zero
ENCODING 48
SWIDTH 292 0
DWIDTH 14 0
BBX 12 33 1 2
BITMAP
3FC0
3FC0
3FE0
7FE0
7FE0
F0F0
F0F0
C030
C030
C0F0
C0F0
C0F0
C3F0
C3F0
C730
C730
CF30
CE30
CE30
FC30
FC30
F030
F030
F030
C030
C030
F0F0
F0F0
7FE0
7FE0
7FC0
3FC0
3FC0
ENDCHAR
STARTCHAR one
ENCODING 49
SWIDTH 292 0
DWIDTH 14 0
BBX 7 33 3 2
BITMAP
18
18
18
78
78
F8
F8
F8
F8
F8
18
18
18
18
18
18
18
18
18
18
18
18
18
18
18
18
18
18
FE
FE
FE
FE
FE
ENDCHAR
STARTCHAR three
ENCODING 51
SWIDTH 292 0
DWIDTH 14 0
BBX 12 33 1 2
BITMAP
3FC0
3FC0
3FC0
7FC0
7FC0
F0F0
F0F0
C030
C030
C030
0030
0030
00F0
00F0
0FC0
0FC0
0FC0
0FC0
0FC0
00F0
00F0
0030
0030
C030
C030
C030
F0F0
F0F0
7FC0
7FC0
3FC0
3FC0
3FC0
ENDCHAR
STARTCHAR four
ENCODING 52
SWIDTH 292 0
DWIDTH 14 0
BBX 11 33 1 2
BITMAP
0180
0180
0180
0380
0380
0780
0780
1F80
1F80
1D80
3D80
3980
7980
6180
E180
E180
C180
C180
FFE0
FFE0
FFE0
FFE0
FFE0
0180
0180
0180
0180
0180
0180
0180
0180
0180
0180
ENDCHAR
STARTCHAR five
ENCODING 53
SWIDTH 292 0
DWIDTH 14 0
BBX 12 33 1 2
BITMAP
FFF0
FFF0
FFF0
FFF0
FFF0
C000
C000
C000
C000
FFC0
FFC0
FFE0
FFE0
FFE0
00F0
00F0
0030
0030
0030
0030
0030
0030
0030
C030
C030
C030
E0F0
E0F0
7FE0
7FE0
3FC0
3FC0
3FC0
ENDCHAR
STARTCHAR six
ENCODING 54
SWIDTH 292 0
DWIDTH 14 0
BBX 12 33 1 2
BITMAP
3FC0
3FC0
3FC0
7FE0
7FE0
F0F0
F0F0
C030
C030
C030
C000
C000
C000
C000
FFC0
FFC0
FFE0
FFE0
FFE0
C0F0
C0F0
C030
C030
C030
C030
C030
F0F0
F0F0
7FE0
7FE0
7FC0
3FC0
3FC0
ENDCHAR
STARTCHAR seven
ENCODING 55
SWIDTH 292 0
DWIDTH 14 0
BBX 11 33 1 2
BITMAP
FFE0
FFE0
FFE0
FFE0
FFE0
0060
0060
0060
0060
0060
01E0
01E0
03C0
03C0
0780
0780
0700
0F00
0F00
0C00
0C00
0C00
0C00
0C00
0C00
0C00
0C00
0C00
0C00
0C00
0C00
0C00
0C00
ENDCHAR
STARTCHAR eight
ENCODING 56
SWIDTH 292 0
DWIDTH 14 0
BBX 12 33 1 2
BITMAP
3FC0
3FC0
3FE0
7FE0
7FE0
F0F0
F0F0
C030
C030
C030
C030
C030
F0F0
F0F0
7FE0
7FE0
7FE0
7FE0
7FE0
F0F0
F0F0
C030
C030
C030
C030
C030
F0F0
F0F0
7FE0
7FE0
7FC0
3FC0
3FC0
ENDCHAR
STARTCHAR nine
ENCODING 57
SWIDTH 292 0
DWIDTH 14 0
BBX 12 33 1 2
BITMAP
3FC0
3FC0
3FE0
7FE0
7FE0
F0F0
F0F0
C030
C030
C030
C030
C030
F030
F030
7FF0
7FF0
7FF0
3FF0
3FF0
0030
0030
0030
0030
C030
C030
C030
F0F0
F0F0
7FE0
7FE0
3FC0
3FC0
3FC0
ENDCHAR
STARTCHAR colon
ENCODING 58
SWIDTH 292 0
DWIDTH 14 0
BBX 2 23 6 7
BITMAP
C0
C0
C0
C0
C0
00
00
00
00
00
00
00
00
00
00
00
00
00
C0
C0
C0
C0
C0
ENDCHAR
STARTCHAR less
ENCODING 60
SWIDTH 292 0
DWIDTH 14 0
BBX 11 36 2 2
BITMAP
00E0
00E0
00E0
03E0
03E0
0180
0780
0780
0F00
0F00
1E00
1C00
1C00
7800
7800
F000
F000
E000
E000
E000
F000
F000
7800
7800
1C00
1C00
1E00
0F00
0F00
0780
0780
01E0
01E0
01E0
00E0
00E0
ENDCHAR
STARTCHAR equal
ENCODING 61
SWIDTH 292 0
DWIDTH 14 0
BBX 11 14 1 12
BITMAP
FFE0
FFE0
FFE0
FFE0
FFE0
0000
0000
0000
0000
FFE0
FFE0
FFE0
FFE0
FFE0
ENDCHAR
STARTCHAR greater
ENCODING 62
SWIDTH 292 0
DWIDTH 14 0
BBX 10 36 2 2
BITMAP
C000
C000
C000
E000
F000
7800
7800
7800
3C00
3C00
0E00
1E00
1E00
0780
0780
03C0
03C0
01C0
01C0
01C0
03C0
03C0
0780
0780
1E00
1E00
1E00
3C00
3C00
7800
7800
E000
F000
F000
C000
C000
ENDCHAR
STARTCHAR question
ENCODING 63
SWIDTH 292 0
DWIDTH 14 0
BBX 12 33 1 2
BITMAP
3FC0
3FC0
3FC0
7FE0
7FE0
E0F0
E0F0
C030
C030
C030
0030
0030
00F0
00F0
01E0
01E0
03C0
03C0
03C0
0700
0700
0600
0600
0000
0000
0000
0000
0000
0600
0600
0600
0600
0600
ENDCHAR
STARTCHAR at
ENCODING 64
SWIDTH 292 0
DWIDTH 14 0
BBX 11 27 1 5
BITMAP
3F80
3F80
60C0
60C0
60C0
C060
C060
9D20
9D20
B320
B320
B320
B320
B320
B320
B320
B360
B360
9EC0
9EC0
C000
C000
C000
60C0
60C0
3F80
3F80
ENDCHAR
STARTCHAR A
ENCODING 65
SWIDTH 292 0
DWIDTH 14 0
BBX 11 33 1 2
BITMAP
0E00
0E00
1F00
1F00
1F00
3F80
3F80
71C0
71C0
E0E0
E0E0
E0E0
C060
C060
C060
C060
C060
C060
FFE0
FFE0
FFE0
FFE0
FFE0
C060
C060
C060
C060
C060
C060
C060
C060
C060
C060
ENDCHAR
STARTCHAR B
ENCODING 66
SWIDTH 292 0
DWIDTH 14 0
BBX 12 33 1 2
BITMAP
FFC0
FFC0
FFE0
FFE0
FFE0
C0F0
C0F0
C030
C030
C030
C030
C030
C0F0
C0F0
FFE0
FFE0
FFE0
FFE0
FFE0
C0F0
C0F0
C030
C030
C030
C030
C030
C0F0
C0F0
FFE0
FFE0
FFC0
FFC0
FFC0
ENDCHAR
STARTCHAR C
ENCODING 67
SWIDTH 292 0
DWIDTH 14 0
BBX 12 33 1 2
BITMAP
3FC0
3FC0
3FC0
7FE0
7FE0
F0F0
F0F0
C030
C030
C020
C000
C000
C000
C000
C000
C000
C000
C000
C000
C000
C000
C000
C000
C030
C030
C030
F0F0
F0F0
7FE0
7FE0
3FC0
3FC0
3FC0
ENDCHAR
STARTCHAR D
ENCODING 68
SWIDTH 292 0
DWIDTH 14 0
BBX 12 33 1 2
BITMAP
FFC0
FFC0
FFE0
FFE0
FFE0
C0F0
C0F0
C030
C030
C030
C030
C030
C030
C030
C030
C030
C030
C030
C030
C030
C030
C030
C030
C030
C030
C030
C0F0
C0F0
FFE0
FFE0
FFC0
FFC0
FFC0
ENDCHAR
STARTCHAR E
ENCODING 69
SWIDTH 292 0
DWIDTH 14 0
BBX 11 33 1 2
BITMAP
FFE0
FFE0
FFE0
FFE0
FFE0
C000
C000
C000
C000
C000
C000
C000
C000
C000
FF80
FF80
FF80
FF80
FF80
C000
C000
C000
C000
C000
C000
C000
C000
C000
FFE0
FFE0
FFE0
FFE0
FFE0
ENDCHAR
STARTCHAR F
ENCODING 70
SWIDTH 292 0
DWIDTH 14 0
BBX 11 33 1 2
BITMAP
FFE0
FFE0
FFE0
FFE0
FFE0
C000
C000
C000
C000
C000
C000
C000
C000
C000
FF80
FF80
FF80
FF80
FF80
C000
C000
C000
C000
C000
C000
C000
C000
C000
C000
C000
C000
C000
C000
ENDCHAR
STARTCHAR G
ENCODING 71
SWIDTH 292 0
DWIDTH 14 0
BBX 11 33 1 2
BITMAP
3F80
3F80
3F80
7FC0
7FC0
F1E0
F1E0
C060
C060
C060
C000
C000
C000
C000
C7E0
C7E0
C7E0
C7E0
C7E0
C060
C060
C060
C060
C060
C060
C060
F1E0
F1E0
7FC0
7FC0
7F80
3F80
3F80
ENDCHAR
STARTCHAR H
ENCODING 72
SWIDTH 292 0
DWIDTH 14 0
BBX 11 33 1 2
BITMAP
C060
C060
C060
C060
C060
C060
C060
C060
C060
C060
C060
C060
C060
C060
FFE0
FFE0
FFE0
FFE0
FFE0
C060
C060
C060
C060
C060
C060
C060
C060
C060
C060
C060
C060
C060
C060
ENDCHAR
STARTCHAR I
ENCODING 73
SWIDTH 292 0
DWIDTH 14 0
BBX 6 33 4 2
BITMAP
FC
FC
FC
FC
FC
30
30
30
30
30
30
30
30
30
30
30
30
30
30
30
30
30
30
30
30
30
30
30
FC
FC
FC
FC
FC
ENDCHAR
STARTCHAR J
ENCODING 74
SWIDTH 292 0
DWIDTH 14 0
BBX 11 33 1 2
BITMAP
07E0
07E0
07E0
07E0
07E0
0180
0180
0180
0180
0180
0180
0180
0180
0180
0180
0180
0180
0180
0180
0180
0180
0180
0180
C180
C180
C180
E380
E380
7F00
7F00
3E00
3E00
3E00
ENDCHAR
STARTCHAR K
ENCODING 75
SWIDTH 292 0
DWIDTH 14 0
BBX 12 33 1 2
BITMAP
C030
C030
C030
C0F0
C0F0
C1E0
C1E0
C380
C3C0
C3C0
CF00
CF00
DE00
DE00
FC00
FC00
FC00
FC00
FC00
DE00
DE00
CF00
CF00
CF00
C3C0
C380
C1E0
C1E0
C0F0
C0F0
C0F0
C070
C030
ENDCHAR
STARTCHAR L
ENCODING 76
SWIDTH 292 0
DWIDTH 14 0
BBX 11 33 1 2
BITMAP
C000
C000
C000
C000
C000
C000
C000
C000
C000
C000
C000
C000
C000
C000
C000
C000
C000
C000
C000
C000
C000
C000
C000
C000
C000
C000
C000
C000
FFE0
FFE0
FFE0
FFE0
FFE0
ENDCHAR
STARTCHAR M
ENCODING 77
SWIDTH 292 0
DWIDTH 14 0
BBX 12 33 1 2
BITMAP
C030
C030
C030
C030
C030
F0F0
F0F0
F9F0
F9F0
FFF0
FFF0
FFF0
DFB0
DFB0
C730
C730
C730
C730
C030
C030
C030
C030
C030
C030
C030
C030
C030
C030
C030
C030
C030
C030
C030
ENDCHAR
STARTCHAR N
ENCODING 78
SWIDTH 292 0
DWIDTH 14 0
BBX 11 33 1 2
BITMAP
C060
C060
C060
C060
C060
C060
C060
E060
E060
F060
F060
F060
FC60
FC60
DE60
DE60
DF60
CF60
CF60
C7E0
C7E0
C1E0
C1E0
C1E0
C0E0
C0E0
C060
C060
C060
C060
C060
C060
C060
ENDCHAR
STARTCHAR O
ENCODING 79
SWIDTH 292 0
DWIDTH 14 0
BBX 12 33 1 2
BITMAP
3FC0
3FC0
3FE0
7FE0
7FE0
F0F0
F0F0
C030
C030
C030
C030
C030
C030
C030
C030
C030
C030
C030
C030
C030
C030
C030
C030
C030
C030
C030
F0F0
F0F0
7FE0
7FE0
7FC0
3FC0
3FC0
ENDCHAR
STARTCHAR P
ENCODING 80
SWIDTH 292 0
DWIDTH 14 0
BBX 12 33 1 2
BITMAP
FFC0
FFC0
FFE0
FFE0
FFE0
C0F0
C0F0
C030
C030
C030
C030
C030
C0F0
C0F0
FFE0
FFE0
FFC0
FFC0
FFC0
C000
C000
C000
C000
C000
C000
C000
C000
C000
C000
C000
C000
C000
C000
ENDCHAR
STARTCHAR Q
ENCODING 81
SWIDTH 292 0
DWIDTH 14 0
BBX 11 33 1 2
BITMAP
3F80
3F80
3FC0
7FC0
7FC0
F0E0
F0E0
C060
C060
C060
C060
C060
C060
C060
C060
C060
C060
C060
C060
C660
C660
C760
C760
C760
C3E0
C3E0
F1C0
F1C0
7FE0
7FE0
7FE0
3E60
3E60
ENDCHAR
STARTCHAR R
ENCODING 82
SWIDTH 292 0
DWIDTH 14 0
BBX 12 33 1 2
BITMAP
FFC0
FFC0
FFE0
FFE0
FFE0
C0F0
C0F0
C030
C030
C030
C030
C030
C0F0
C0F0
FFE0
FFE0
FFC0
FFC0
FFC0
DE00
DE00
CF00
CF00
CF00
C3C0
C3C0
C1E0
C1E0
C0F0
C0F0
C0F0
C030
C030
ENDCHAR
STARTCHAR S
ENCODING 83
SWIDTH 292 0
DWIDTH 14 0
BBX 12 33 1 2
BITMAP
3FC0
3FC0
3FC0
7FE0
7FE0
F0F0
F0F0
C030
C030
C030
C000
C000
F000
F000
7FC0
7FC0
7FE0
3FE0
3FE0
00F0
00F0
0030
0030
C030
C030
C030
F0F0
F0E0
7FE0
7FE0
3FC0
3FC0
3FC0
ENDCHAR
STARTCHAR T
ENCODING 84
SWIDTH 292 0
DWIDTH 14 0
BBX 12 33 1 2
BITMAP
FFF0
FFF0
FFF0
FFF0
FFF0
0600
0600
0600
0600
0600
0600
0600
0600
0600
0600
0600
0600
0600
0600
0600
0600
0600
0600
0600
0600
0600
0600
0600
0600
0600
0600
0600
0600
ENDCHAR
STARTCHAR U
ENCODING 85
SWIDTH 292 0
DWIDTH 14 0
BBX 11 33 1 2
BITMAP
C060
C060
C060
C060
C060
C060
C060
C060
C060
C060
C060
C060
C060
C060
C060
C060
C060
C060
C060
C060
C060
C060
C060
C060
C060
C060
E0E0
E0E0
7FC0
7FC0
7F80
3F80
3F80
ENDCHAR
STARTCHAR V
ENCODING 86
SWIDTH 292 0
DWIDTH 14 0
BBX 11 33 1 2
BITMAP
C060
C060
C060
C060
C060
C060
C060
C060
C060
C060
C060
C060
C060
C060
C060
C060
C060
C060
C060
C060
C060
E0E0
E0E0
71C0
71C0
71C0
3F80
3F80
1F00
1F00
0E00
0E00
0E00
ENDCHAR
STARTCHAR W
ENCODING 87
SWIDTH 292 0
DWIDTH 14 0
BBX 12 33 1 2
BITMAP
C030
C030
C030
C030
C030
C030
C030
C030
C030
C030
C030
C030
C030
C030
C630
C630
C630
C630
C630
C630
C630
C630
C630
C630
C630
C630
FFF0
FFF0
7FE0
7FE0
7FE0
39C0
39C0
ENDCHAR
STARTCHAR X
ENCODING 88
SWIDTH 292 0
DWIDTH 14 0
BBX 12 33 1 2
BITMAP
C030
C030
C030
C030
C030
C030
C030
E0F0
F0F0
79E0
79E0
79E0
3FC0
3FC0
1F00
1F00
1F00
1F00
1F00
3FC0
3FC0
79E0
79E0
79E0
E0F0
F0F0
C030
C030
C030
C030
C030
C030
C030
ENDCHAR
STARTCHAR Y
ENCODING 89
SWIDTH 292 0
DWIDTH 14 0
BBX 12 33 1 2
BITMAP
C030
C030
C030
C030
C030
C030
C030
C030
C030
C030
C030
C030
F0F0
F0F0
79E0
79E0
7FC0
3FC0
3FC0
1F80
1F80
0600
0600
0600
0600
0600
0600
0600
0600
0600
0600
0600
0600
ENDCHAR
STARTCHAR Z
ENCODING 90
SWIDTH 292 0
DWIDTH 14 0
BBX 11 33 1 2
BITMAP
FFE0
FFE0
FFE0
FFE0
FFE0
0060
0060
00E0
00E0
00C0
01C0
01C0
0380
0380
0F00
0F00
0E00
1E00
1E00
3C00
3C00
7000
7000
6000
E000
E000
C000
C000
FFE0
FFE0
FFE0
FFE0
FFE0
ENDCHAR
STARTCHAR bracketleft
ENCODING 91
SWIDTH 292 0
DWIDTH 14 0
BBX 7 38 4 2
BITMAP
FE
FE
FE
FE
FE
C0
C0
C0
C0
C0
C0
C0
C0
C0
C0
C0
C0
C0
C0
C0
C0
C0
C0
C0
C0
C0
C0
C0
C0
C0
C0
C0
C0
FE
FE
FE
FE
FE
ENDCHAR
STARTCHAR backslash
ENCODING 92
SWIDTH 292 0
DWIDTH 14 0
BBX 11 33 1 2
BITMAP
C000
C000
C000
C000
C000
C000
C000
E000
E000
7000
7000
7000
3C00
3C00
1E00
1E00
1F00
0F00
0F00
0780
0780
01C0
01C0
01C0
00E0
00E0
0060
0060
0060
0060
0060
0060
0060
ENDCHAR
STARTCHAR bracketright
ENCODING 93
SWIDTH 292 0
DWIDTH 14 0
BBX 7 38 3 2
BITMAP
FE
FE
FE
FE
FE
06
06
06
06
06
06
06
06
06
06
06
06
06
06
06
06
06
06
06
06
06
06
06
06
06
06
06
06
FE
FE
FE
FE
FE
ENDCHAR
STARTCHAR asciicircum
ENCODING 94
SWIDTH 292 0
DWIDTH 14 0
BBX 11 12 1 23
BITMAP
0E00
0E00
0E00
1F00
1F00
3F80
3F80
71C0
71C0
71C0
E0E0
E0E0
ENDCHAR
STARTCHAR underscore
ENCODING 95
SWIDTH 292 0
DWIDTH 14 0
BBX 14 5 0 0
BITMAP
FFFC
FFFC
FFFC
FFFC
FFFC
ENDCHAR
STARTCHAR grave
ENCODING 96
SWIDTH 292 0
DWIDTH 14 0
BBX 6 7 4 28
BITMAP
F0
F0
F8
78
78
0C
0C
ENDCHAR
STARTCHAR a
ENCODING 97
SWIDTH 292 0
DWIDTH 14 0
BBX 12 28 1 2
BITMAP
3FC0
3FC0
3FE0
3FE0
3FE0
00F0
00F0
0030
0030
3F30
3F30
7FF0
7FF0
7FF0
F0F0
F0F0
C030
C030
C030
C030
F0F0
F0F0
F0F0
7FF0
7FF0
3F30
3F30
3F30
ENDCHAR
STARTCHAR b
ENCODING 98
SWIDTH 292 0
DWIDTH 14 0
BBX 12 33 1 2
BITMAP
C000
C000
C000
C000
C000
C000
C000
CF00
CF00
DF80
DF80
FFE0
FDE0
FDE0
F0F0
F0F0
E070
E070
E070
E070
E070
E070
E070
F0F0
F0F0
F0F0
FDE0
FDE0
DF80
DF80
CF00
CF00
CF00
ENDCHAR
STARTCHAR c
ENCODING 99
SWIDTH 292 0
DWIDTH 14 0
BBX 12 26 1 2
BITMAP
3FC0
3FC0
7FE0
7FE0
73F0
F0F0
F0F0
C030
C030
C000
C000
C000
C000
C000
C000
C000
C030
C030
C030
F0F0
F0F0
7FE0
7FE0
3FC0
3FC0
3FC0
ENDCHAR
STARTCHAR d
ENCODING 100
SWIDTH 292 0
DWIDTH 14 0
BBX 12 33 1 2
BITMAP
0030
0030
0030
0030
0030
0030
0030
1E30
1E30
3F30
3F30
3FF0
7BF0
7BF0
E1F0
E1F0
C0F0
C0F0
C0F0
C0F0
C0F0
C0F0
C0F0
E1F0
E1F0
E1F0
7BF0
7BF0
3F30
3F30
1E30
1E30
1E30
ENDCHAR
STARTCHAR e
ENCODING 101
SWIDTH 292 0
DWIDTH 14 0
BBX 12 26 1 2
BITMAP
3FC0
3FC0
7FE0
7FE0
7FE0
F0F0
F0F0
C070
C070
FFF0
FFF0
FFF0
FFE0
FFE0
C000
C000
C000
C000
F0F0
F0F0
F0F0
7FE0
7FE0
3FC0
3FC0
3FC0
ENDCHAR
STARTCHAR f
ENCODING 102
SWIDTH 292 0
DWIDTH 14 0
BBX 10 33 2 2
BITMAP
07C0
07C0
1FC0
0FC0
0FC0
0C00
0C00
FFC0
FFC0
FFC0
FFC0
FFC0
0C00
0C00
0C00
0C00
0C00
0C00
0C00
0C00
0C00
0C00
0C00
0C00
0C00
0C00
0C00
0C00
0C00
0C00
0C00
0C00
0C00
ENDCHAR
STARTCHAR g
ENCODING 103
SWIDTH 292 0
DWIDTH 14 0
BBX 13 28 0 2
BITMAP
1FE0
1FE0
3FF0
3FF0
3FF0
F078
F078
E018
E018
F078
F078
3FF8
3FF8
3FF8
1F98
1F98
0018
0018
0018
0018
3078
3078
3078
3FF0
3FF0
1FE0
1FE0
1FE0
ENDCHAR
STARTCHAR h
ENCODING 104
SWIDTH 292 0
DWIDTH 14 0
BBX 11 33 1 2
BITMAP
C000
C000
C000
C000
C000
C000
C000
CF00
CF00
DF80
DF80
FFC0
FDC0
FDC0
F0E0
F0E0
E060
E060
C060
C060
C060
C060
C060
C060
C060
C060
C060
C060
C060
C060
C060
C060
C060
ENDCHAR
STARTCHAR i
ENCODING 105
SWIDTH 292 0
DWIDTH 14 0
BBX 7 31 3 2
BITMAP
18
18
18
18
18
00
00
00
00
F8
F8
F8
F8
F8
18
18
18
18
18
18
18
18
18
18
1C
1C
0E
0E
0E
06
06
ENDCHAR
STARTCHAR j
ENCODING 106
SWIDTH 292 0
DWIDTH 14 0
BBX 7 36 3 2
BITMAP
06
06
06
06
06
00
00
00
00
00
1E
1E
1E
1E
1E
06
06
06
06
06
06
06
06
06
06
06
06
06
06
0E
0E
FC
FC
F8
F8
F8
ENDCHAR
STARTCHAR k
ENCODING 107
SWIDTH 292 0
DWIDTH 14 0
BBX 12 33 1 2
BITMAP
C000
C000
C000
C000
C000
C000
C000
C060
C060
C0F0
C0F0
C0F0
C3C0
C3C0
C780
C780
CF00
CF00
CF00
DC00
DC00
FF00
FF00
F780
F780
F780
E3C0
E3C0
C0F0
C0F0
C0F0
C060
C060
ENDCHAR
STARTCHAR l
ENCODING 108
SWIDTH 292 0
DWIDTH 14 0
BBX 2 33 6 2
BITMAP
C0
C0
C0
C0
C0
C0
C0
C0
C0
C0
C0
C0
C0
C0
C0
C0
C0
C0
C0
C0
C0
C0
C0
C0
C0
C0
C0
C0
C0
C0
C0
C0
C0
ENDCHAR
STARTCHAR m
ENCODING 109
SWIDTH 292 0
DWIDTH 14 0
BBX 12 26 1 2
BITMAP
DFC0
DFC0
FFE0
FFE0
FFE0
F6F0
F6F0
C630
C630
C630
C630
C630
C630
C630
C630
C630
C630
C630
C630
C630
C630
C630
C630
C630
C630
C630
ENDCHAR
STARTCHAR n
ENCODING 110
SWIDTH 292 0
DWIDTH 14 0
BBX 11 26 1 2
BITMAP
DF80
DF80
FFC0
FFC0
FFC0
E0E0
E0E0
C060
C060
C060
C060
C060
C060
C060
C060
C060
C060
C060
C060
C060
C060
C060
C060
C060
C060
C060
ENDCHAR
STARTCHAR o
ENCODING 111
SWIDTH 292 0
DWIDTH 14 0
BBX 12 26 1 2
BITMAP
3FC0
3FC0
3FE0
7FE0
7FE0
F0F0
F0F0
C030
C030
C030
C030
C030
C030
C030
C030
C030
C030
C030
C030
F0F0
F0F0
7FE0
7FE0
7FC0
3FC0
3FC0
ENDCHAR
STARTCHAR p
ENCODING 112
SWIDTH 292 0
DWIDTH 14 0
BBX 12 28 1 2
BITMAP
DF80
DF80
FFE0
FFE0
FFE0
F8F0
F8F0
E070
E070
E070
E070
E070
E070
E070
F8F0
F8F0
FFE0
FFE0
FF80
DF80
DF80
C000
C000
C000
C000
C000
C000
C000
ENDCHAR
STARTCHAR q
ENCODING 113
SWIDTH 292 0
DWIDTH 14 0
BBX 12 28 1 2
BITMAP
3F30
3F30
3FF0
7FF0
7FF0
F1F0
F1F0
C0F0
C0F0
C0F0
C0F0
C0F0
C0F0
F1F0
F1F0
F1F0
7FF0
7FF0
3EF0
3EF0
3EF0
0030
0030
0030
0030
0030
0030
0030
ENDCHAR
STARTCHAR r
ENCODING 114
SWIDTH 292 0
DWIDTH 14 0
BBX 11 26 1 2
BITMAP
CF80
CF80
DFC0
DFC0
DDE0
FCE0
FCE0
F060
F060
E000
E000
C000
C000
C000
C000
C000
C000
C000
C000
C000
C000
C000
C000
C000
C000
C000
ENDCHAR
STARTCHAR s
ENCODING 115
SWIDTH 292 0
DWIDTH 14 0
BBX 12 26 1 2
BITMAP
3FC0
3FC0
7FE0
7FE0
7FE0
F0F0
F0F0
F070
F070
7E00
7E00
0FC0
0FC0
0FC0
03E0
03E0
E0F0
E0F0
F0F0
F0F0
F0F0
7FE0
7FE0
3FC0
3FC0
3FC0
ENDCHAR
STARTCHAR t
ENCODING 116
SWIDTH 292 0
DWIDTH 14 0
BBX 6 33 4 2
BITMAP
30
30
30
30
30
30
30
FC
FC
FC
FC
FC
30
30
30
30
30
30
30
30
30
30
30
30
30
30
38
38
1C
1C
1C
0C
0C
ENDCHAR
STARTCHAR u
ENCODING 117
SWIDTH 292 0
DWIDTH 14 0
BBX 11 26 1 2
BITMAP
C060
C060
C060
C060
C060
C060
C060
C060
C060
C060
C060
C060
C060
C060
C060
C060
C060
C060
C060
E0E0
E0E0
7FC0
7FC0
7F80
3F80
3F80
ENDCHAR
STARTCHAR v
ENCODING 118
SWIDTH 292 0
DWIDTH 14 0
BBX 11 26 1 2
BITMAP
C060
C060
C060
C060
C060
C060
C060
C060
C060
C060
C060
C060
C060
C060
E0E0
E0E0
71C0
71C0
71C0
3F80
3F80
1F00
1F00
0E00
0E00
0E00
ENDCHAR
STARTCHAR w
ENCODING 119
SWIDTH 292 0
DWIDTH 14 0
BBX 12 26 1 2
BITMAP
C030
C030
C030
C030
C030
C030
C030
C030
C030
C630
C630
C630
C630
C630
C630
C630
C630
C630
C630
F6F0
F6F0
7FE0
7FE0
7FC0
39C0
39C0
ENDCHAR
STARTCHAR x
ENCODING 120
SWIDTH 292 0
DWIDTH 14 0
BBX 12 26 1 2
BITMAP
C030
C030
E0F0
F0F0
F0F0
79E0
79E0
3FC0
3FC0
0F00
1F00
1F00
0600
0600
1F00
1F00
3FC0
3FC0
3FC0
79E0
79E0
E0F0
F0F0
C030
C030
C020
ENDCHAR
STARTCHAR y
ENCODING 121
SWIDTH 292 0
DWIDTH 14 0
BBX 12 28 1 2
BITMAP
C030
C030
C030
C030
C0F0
C0F0
C0F0
C0F0
C0F0
C1F0
C1F0
E3F0
E3F0
7F30
7F30
7E30
3E30
3E30
0030
0030
0030
00F0
00F0
3FE0
3FE0
3FC0
3FC0
3FC0
ENDCHAR
STARTCHAR z
ENCODING 122
SWIDTH 292 0
DWIDTH 14 0
BBX 11 26 1 2
BITMAP
FFE0
FFE0
FFE0
FFE0
FFE0
00E0
00E0
01C0
01C0
0180
0380
0380
0F00
0F00
1E00
1E00
3C00
3C00
3C00
7000
7000
FFE0
FFE0
FFE0
FFE0
FFE0
ENDCHAR
STARTCHAR braceleft
ENCODING 123
SWIDTH 292 0
DWIDTH 14 0
BBX 7 38 3 2
BITMAP
1E
1E
1E
1E
1E
3E
3E
38
38
38
38
38
38
38
38
38
F0
F0
F0
F0
F0
30
30
30
30
30
30
30
30
30
30
3C
3C
0C
0C
0C
0C
0C
ENDCHAR
STARTCHAR bar
ENCODING 124
SWIDTH 292 0
DWIDTH 14 0
BBX 2 38 6 2
BITMAP
C0
C0
C0
C0
C0
C0
C0
C0
C0
C0
C0
C0
C0
C0
C0
C0
C0
C0
C0
C0
C0
C0
C0
C0
C0
C0
C0
C0
C0
C0
C0
C0
C0
C0
C0
C0
C0
C0
ENDCHAR
STARTCHAR braceright
ENCODING 125
SWIDTH 292 0
DWIDTH 14 0
BBX 7 38 3 2
BITMAP
F0
F0
F0
F0
F0
F0
F0
30
30
30
30
30
30
30
30
30
1E
1E
1E
1E
1E
30
30
30
30
30
30
30
30
30
30
F0
F0
F0
F0
F0
F0
F0
ENDCHAR
STARTCHAR asciitilde
ENCODING 126
SWIDTH 292 0
DWIDTH 14 0
BBX 11 10 1 14
BITMAP
3C20
3C20
3C20
7E60
7E60
CFC0
CFC0
CFC0
8380
8380
ENDCHAR
ENDFONT
